<?xml version="1.0" encoding="UTF-8" standalone="no"?>
<svg
   xmlns:dc="http://purl.org/dc/elements/1.1/"
   xmlns:cc="http://creativecommons.org/ns#"
   xmlns:rdf="http://www.w3.org/1999/02/22-rdf-syntax-ns#"
   xmlns:svg="http://www.w3.org/2000/svg"
   xmlns="http://www.w3.org/2000/svg"
   xmlns:xlink="http://www.w3.org/1999/xlink"
   xmlns:sodipodi="http://sodipodi.sourceforge.net/DTD/sodipodi-0.dtd"
   xmlns:inkscape="http://www.inkscape.org/namespaces/inkscape"
   version="1.1"
   id="Layer_1"
   x="0px"
   y="0px"
   viewBox="0 0 510.24 110.55"
   style="enable-background:new 0 0 510.24 110.55;"
   xml:space="preserve"
   sodipodi:docname="mailbox-plate.svg"
   inkscape:version="1.0.2 (e86c870879, 2021-01-15)"><metadata
   id="metadata87"><rdf:RDF><cc:Work
       rdf:about=""><dc:format>image/svg+xml</dc:format><dc:type
         rdf:resource="http://purl.org/dc/dcmitype/StillImage" /></cc:Work></rdf:RDF></metadata><defs
   id="defs85" /><sodipodi:namedview
   pagecolor="#ffffff"
   bordercolor="#666666"
   borderopacity="1"
   objecttolerance="10"
   gridtolerance="10"
   guidetolerance="10"
   inkscape:pageopacity="0"
   inkscape:pageshadow="2"
   inkscape:window-width="1920"
   inkscape:window-height="1016"
   id="namedview83"
   showgrid="false"
   inkscape:zoom="2.469104"
   inkscape:cx="255.12"
   inkscape:cy="55.275002"
   inkscape:window-x="0"
   inkscape:window-y="27"
   inkscape:window-maximized="1"
   inkscape:current-layer="Layer_1" />
<style
   type="text/css"
   id="style2">
	.st0{clip-path:url(#SVGID_2_);}
</style>
<g
   id="g80">
	<defs
   id="defs5">
		<rect
   id="SVGID_1_"
   y="0"
   width="510.24"
   height="110.55" />
	</defs>
	<clipPath
   id="SVGID_2_">
		<use
   xlink:href="#SVGID_1_"
   style="overflow:visible;"
   id="use7" />
	</clipPath>
	
	<path
   class="st0"
   d="M448.73,45.61c-0.06,0.03-0.13,0.06-0.19,0.08c-0.02,0.31-0.04,0.63-0.05,0.94c0.05,0.02,0.09,0.04,0.14,0.06   c0.17-0.15,0.48-0.31,0.48-0.47C449.11,46.02,448.87,45.81,448.73,45.61 M477.89,40.09c0.11-0.28,0.19-0.46,0.3-0.72   c-0.28-0.12-0.55-0.24-0.82-0.35c-0.04,0.06-0.08,0.11-0.11,0.17C477.45,39.46,477.65,39.75,477.89,40.09 M468.48,25.81   c-0.09,0-0.18,0-0.27,0c-0.04,0.57-0.07,1.14-0.11,1.71c0.09,0,0.17,0.01,0.26,0.01C468.41,26.96,468.45,26.38,468.48,25.81    M442.72,38.88c0.57-0.91,0.47-1.22-0.42-1.64C442.44,37.77,442.56,38.26,442.72,38.88 M441.46,40.23c0.13,0.4,0.25,0.79,0.38,1.18   c0.06,0,0.11,0,0.17,0c0.14-0.36,0.27-0.73,0.39-1.04C442.05,40.32,441.8,40.28,441.46,40.23 M439.3,54.91   c-0.37,0.59-0.3,1.16,0.2,1.6C439.86,55.99,439.78,55.35,439.3,54.91 M458.24,83.31c0.08-0.07,0.21-0.18,0.34-0.29   c-0.23-0.25-0.45-0.5-0.68-0.75c-0.13,0.14-0.34,0.26-0.36,0.42C457.48,83.1,457.78,83.23,458.24,83.31 M454.79,82.38   c0.02,0.08,0.05,0.17,0.07,0.25c0.45,0.03,0.9,0.06,1.35,0.09c0.03-0.08,0.06-0.15,0.09-0.23c-0.22-0.21-0.44-0.59-0.66-0.58   C455.36,81.91,455.07,82.21,454.79,82.38 M439.07,60.59c-0.13,0.61,0.38,1.54,0.96,1.77C440,61.62,439.77,61,439.07,60.59    M461.44,82.51c0.06,0.08,0.21,0.41,0.36,0.42c0.55,0.02,0.56-0.49,0.59-0.85c0.01-0.19-0.22-0.56-0.32-0.56   C461.59,81.53,461.49,81.92,461.44,82.51 M447,46.69c0.1-0.44,0.22-0.81,0.25-1.19c0.01-0.12-0.2-0.36-0.33-0.37   c-0.18-0.02-0.45,0.06-0.54,0.19C446.2,45.58,446.6,46.48,447,46.69 M433.7,14.87c-0.08,0.04-0.15,0.08-0.23,0.12   c0.37,0.83,0.74,1.66,1.11,2.5l0.21-0.02c0.04-0.2,0.18-0.46,0.11-0.6C434.54,16.19,434.11,15.54,433.7,14.87 M441.83,47.37   c-0.55,0.75-0.5,2.05,0.04,2.64c0.18-0.56,0.36-1.11,0.58-1.75c-0.24,0.1-0.4,0.16-0.67,0.28   C441.8,48.11,441.81,47.77,441.83,47.37 M438.65,56.9c0.07,0.88,0.12,1.63,0.19,2.48c0.15-0.13,0.4-0.25,0.45-0.42   C439.47,58.25,439.59,57.52,438.65,56.9 M448.37,27.16c0.04-0.03,0.08-0.05,0.13-0.08c-0.52-0.93-1.03-1.86-1.55-2.79   c-0.05,0.03-0.1,0.05-0.14,0.08C446.65,25.67,447.56,26.38,448.37,27.16 M459.57,83.61c0.39,0.26,0.72,0,1.04-0.22   c0.38-0.26,0.26-0.61,0.08-0.91c-0.1-0.17-0.34-0.25-0.52-0.37c-0.17,0.25-0.38,0.49-0.51,0.77   C459.58,83.07,459.61,83.31,459.57,83.61 M442.16,67.99c0.06-1.19-0.6-2.02-1.61-2.11C440.74,66.83,441.4,67.38,442.16,67.99    M438.35,59.08c-0.15-0.66-0.27-1.22-0.42-1.77c-0.01-0.04-0.36-0.05-0.38,0c-0.09,0.19-0.16,0.41-0.14,0.61   c0.05,0.5,0.15,0.99,0.23,1.49c0.02,0.11,0.08,0.22,0.12,0.32c0.12-0.05,0.3-0.07,0.36-0.16C438.24,59.4,438.3,59.19,438.35,59.08    M447.39,31.39c-0.36,0.39-0.65,0.73-0.96,1.05c-0.07,0.07-0.21,0.09-0.32,0.09c-0.12,0-0.24-0.04-0.37-0.07   c-0.01,0.15-0.06,0.31-0.02,0.45c0.06,0.25,0.17,0.49,0.27,0.75C446.95,33.04,447.61,32.02,447.39,31.39 M441.17,36.89   c-0.45,0.42-0.79,0.73-1.12,1.05c-0.05,0.05-0.05,0.2-0.02,0.25c0.47,0.64,0.94,1.26,1.49,1.99   C441.39,39.02,441.28,38.02,441.17,36.89 M439.04,62.36c-0.38,0.68,1.74,3.1,2.7,3.18c-0.05-0.78-0.05-0.77-0.69-1.09   c-0.17-0.08-0.31-0.24-0.44-0.38C440.09,63.52,439.59,62.96,439.04,62.36 M464.22,77.38c-0.06-0.01-0.12-0.02-0.18-0.03   c-0.11,0.18-0.26,0.34-0.31,0.54c-0.2,0.69-0.32,1.4-0.56,2.06c-0.16,0.44,0.08,0.69,0.34,0.78c0.15,0.06,0.52-0.2,0.65-0.4   C464.76,79.36,464.48,78.36,464.22,77.38 M445.82,24.46c-0.49,0.71-0.49,0.82-0.05,1.45c0.07,0.1,0.16,0.2,0.24,0.3   c0.43,0.51,0.9,1,1.28,1.54c0.49,0.71,0.9,1.46,1.36,2.22c0.32-0.36,0.38-0.7,0.05-1.06c-0.26-0.28-0.52-0.56-0.74-0.86   c-0.55-0.75-1.09-1.51-1.63-2.27c0.02-0.01,0.05-0.03,0.07-0.05c0.17,0.13,0.33,0.26,0.5,0.39c0.03-0.03,0.05-0.07,0.08-0.1   C446.6,25.5,446.21,24.99,445.82,24.46 M439.94,38.97c-0.04,0.02-0.09,0.04-0.13,0.06c0.01,0.64,0.23,1.23,0.51,1.81   c0.29,0.59,0.56,1.19,0.87,1.85c-0.36,0.1-0.62,0.17-0.96,0.26c0.21,0.45,0.37,0.92,0.64,1.3c0.24,0.34,0.6,0.23,0.6-0.18   c0.01-0.84,0.62-1.77-0.28-2.51c-0.02-0.02-0.02-0.07-0.04-0.1c-0.31-0.69-0.62-1.38-0.94-2.06   C440.15,39.24,440.04,39.11,439.94,38.97 M447.92,30.98c0.19-0.24,0.36-0.37,0.42-0.55c0.04-0.12-0.03-0.33-0.12-0.44   c-0.15-0.19-0.39-0.32-0.53-0.52c-0.29-0.41-0.52-0.86-0.81-1.27c-0.48-0.67-1-1.31-1.53-2.01c0.15,0.01,0.24,0.02,0.41,0.04   c-0.11-0.21-0.18-0.36-0.27-0.48c-0.11-0.16-0.25-0.29-0.38-0.44c-0.16,0.19-0.39,0.35-0.45,0.56c-0.06,0.19-0.02,0.49,0.1,0.66   C445.77,28,446.82,29.45,447.92,30.98 M452.72,77.31c0.06,0.18,0.15,0.33,0.16,0.48c0.03,0.64,0.01,1.29,0.07,1.93   c0.02,0.26,0.22,0.5,0.32,0.75c0.11,0.28,0.2,0.57,0.3,0.86c0.05,0.15,0.06,0.4,0.16,0.44c0.15,0.06,0.4,0.05,0.53-0.05   c0.51-0.35,0.81-0.88,0.69-1.47c-0.16-0.8-0.42-1.58-0.69-2.34C453.96,77.1,453.57,76.96,452.72,77.31 M446.7,53.4   c0.06-0.02,0.11-0.05,0.17-0.07c-0.05-0.2-0.07-0.42-0.14-0.61c-0.28-0.8-0.59-1.59-0.86-2.39c-0.08-0.23-0.1-0.48-0.12-0.73   c-0.01-0.08,0.08-0.18,0.16-0.23c0.02-0.02,0.15,0.06,0.2,0.12c0.38,0.47,0.51,0.47,0.97,0.05c-0.51-0.32-1.04-0.61-1.52-0.96   c-0.51-0.38-0.94-0.84-0.9-1.58c0.19,0.07,0.37,0.13,0.62,0.23c-0.11-0.48-0.2-0.89-0.3-1.33c-0.24,0.12-0.45,0.23-0.67,0.31   c-0.14,0.05-0.3,0.04-0.44,0.06c0.04-0.14,0.07-0.28,0.12-0.42c0.1-0.26,0.22-0.51,0.36-0.83c-0.65,0.06-0.98,0.36-1.13,0.92   c-0.05,0.19-0.08,0.39-0.15,0.57c-0.4,1.01-0.21,1.86,0.61,2.58c0.02,0.02,0.07,0,0.15,0c0.07-0.19,0.15-0.4,0.22-0.62   c0.05-0.02,0.1-0.04,0.15-0.06c0.12,0.26,0.24,0.52,0.35,0.78c0.26,0.06,0.58,0.21,0.6,0.38c0.16,1.29,0.97,2.32,1.35,3.52   C446.52,53.21,446.63,53.3,446.7,53.4 M436.59,12.43c0.36-0.56,0.32-1.49-0.12-1.73c-0.76-0.42-1.57-0.82-2.4-1.05   c-0.66-0.18-1.4-0.11-2.1-0.15c-0.01,0.18,0.03,0.37-0.05,0.5c-0.41,0.71-0.34,1.45-0.18,2.2c0.35,1.63,0.27,3.27-0.03,4.89   c-0.13,0.72,0.09,1.27,0.44,1.86c0.33,0.55,0.56,1.15,0.83,1.74c0.08,0.18,0.14,0.37,0.23,0.62c0.46-0.87,0.46-0.87,0.13-1.64   c-0.04-0.1-0.06-0.21-0.1-0.31c-0.23-0.62-0.44-1.24-0.69-1.84c-0.18-0.44-0.19-0.67,0.08-1.06c0.46,0.87,0.9,1.71,1.34,2.56   c0.07,0.14,0.12,0.28,0.2,0.45c0.42-0.29,0.46-0.55,0.25-0.98c-0.65-1.33-1.25-2.69-1.86-4.05c-0.03-0.06,0-0.19,0.04-0.24   c0.32-0.38,0.37-0.76,0.04-1.17c-0.04-0.06,0.03-0.21,0.05-0.31c0.09,0.03,0.23,0.03,0.27,0.09c0.29,0.43,0.56,0.87,0.85,1.3   c0.29,0.43,0.59,0.85,0.89,1.27c0.06-0.03,0.13-0.06,0.19-0.09c-0.01-0.18,0.04-0.4-0.04-0.54c-0.33-0.64-0.71-1.25-1.06-1.88   c-0.22-0.4-0.43-0.81-0.64-1.21c0.08-0.05,0.17-0.1,0.25-0.15c0.46,0.66,0.93,1.31,1.38,1.99c0.24,0.36,0.33,0.83,0.91,0.93   c-0.02-0.17,0.01-0.31-0.05-0.4c-0.26-0.43-0.55-0.84-0.8-1.27c-0.31-0.53-0.87-0.98-0.64-1.87c0.76,1.11,1.45,2.13,2.23,3.27   c0.07-0.88-0.36-1.42-0.69-1.98c-0.21-0.36-0.45-0.64-0.05-1.02C436,11.58,436.29,11.99,436.59,12.43 M463.61,82.77l0.2-0.04   c-0.06,0.12-0.1,0.27-0.19,0.34c-0.58,0.4-1.14,0.85-1.77,1.13c-0.49,0.22-1.07,0.27-1.61,0.3c-0.77,0.04-1.55,0-2.33-0.02   c-1-0.02-1.97-0.14-2.72-0.9c-0.28-0.28-0.48-0.63-0.77-0.89c-0.18-0.17-0.46-0.24-0.7-0.35c0,0.25-0.04,0.5,0,0.73   c0.04,0.19,0.21,0.34,0.26,0.53c0.25,0.96,1,1.46,1.8,1.82c1.21,0.53,2.47,0.93,3.84,0.88c1.32-0.05,2.47-0.39,3.55-1.19   c0.9-0.66,1.21-1.67,1.76-2.52c0.76-1.2,1.49-2.45,1.87-3.86c0.12-0.45,0.41-0.86,0.59-1.23c-0.18-0.22-0.43-0.37-0.43-0.52   c0-0.48-0.33-0.61-0.66-0.61c-0.35-0.01-0.55,0.26-0.6,0.63c-0.04,0.27-0.08,0.66-0.26,0.77c-0.46,0.28-0.44,0.62-0.35,1.06   c0.29,1.45-0.41,2.41-1.49,2.83c-0.31,0.12-0.64,0.23-0.56,0.59C463.1,82.45,463.41,82.6,463.61,82.77 M458.49,80.12   c-0.05-0.73-0.12-1.45-0.15-2.18c-0.04-0.86-0.07-1.73-0.1-2.59c-0.01-0.42-0.19-0.54-0.62-0.49c-0.97,0.1-1.96,0.14-2.93,0.21   c-0.25,0.02-0.51,0.03-0.74,0.11c-0.17,0.05-0.42,0.19-0.43,0.31c-0.02,0.19,0.08,0.43,0.21,0.6c0.36,0.49,0.88,0.91,1.1,1.45   c0.39,0.97,0.66,2,0.88,3.03c0.14,0.67,0.73,0.83,1.12,1.22c0.04,0.03,0.17,0,0.24-0.04c0.74-0.4,1.07-0.38,1.65,0.19   c0.22,0.22,0.4,0.26,0.64,0.05c0.43-0.36,0.87-0.7,1.5-0.49c0.09,0.03,0.28-0.04,0.33-0.12c0.34-0.56,0.86-0.74,1.31-0.71   c0.05-0.65,0.01-1.28,0.18-1.86c0.21-0.72,0.59-1.39,0.88-2.08c0.23-0.54,0.45-1.06,1.22-0.75c0.15-0.53,0.29-0.99,0.44-1.51   c-1.34,0.1-2.6,0.2-3.87,0.27c-0.52,0.03-1.04,0.01-1.56,0.01c-0.35,0-0.58,0.09-0.6,0.51c-0.04,0.83-0.15,1.65-0.18,2.48   C458.99,78.55,459.03,79.38,458.49,80.12 M431.36,19.21c-0.08,1.11,0.08,2.15,0.62,3.09c1,1.75,1.18,3.68,1.27,5.63   c0.03,0.76-0.06,1.52-0.02,2.27c0.07,1.28,0.2,2.55,0.31,3.82c0.09,1.05,0.17,2.09,1.07,2.84c0.24,0.2,0.39,0.65,0.63,0.7   c0.67,0.14,1.02,0.65,1.42,1.07c0.29,0.3,0.38,0.77,0.58,1.16c0.27,0.51,0.61,0.55,0.97,0.19c0.3,0.41,0.58,0.85,0.93,1.23   c0.32,0.36,0.38,0.96,0.97,1.17c-0.41-1.37-0.79-2.65-1.19-3.99c0.07-0.09,0.16-0.34,0.31-0.39c0.88-0.26,1.19-1.08,1.63-1.72   c0.41-0.6,0.93-1.07,1.49-1.44c0.48-0.31,0.74-0.69,0.96-1.17c0.24-0.53,0.55-1.04,0.85-1.54c0.31-0.51,0.54-1.03,0.42-1.63   c-0.16-0.83-0.35-1.66-0.48-2.49c-0.17-1.07-0.57-2.16,0.37-3.11c1.03-1.04,1.02-2.39,0.95-3.71c-0.02-0.41-0.26-0.89-0.55-1.17   c-0.82-0.8-1.76-1.49-2.6-2.27c-0.81-0.75-1.54-1.6-2.33-2.36c-0.29-0.28-0.68-0.42-1.06-0.03c-0.07,0.07-0.35,0.04-0.45-0.04   c-0.36-0.27-0.55-0.18-0.74,0.2c-0.16,0.32-0.4,0.6-0.57,0.91c-0.08,0.13-0.13,0.3-0.12,0.44c0.02,0.3,0.19,0.61-0.31,0.69   c-0.28,0.05-0.55,0.3-0.8,0.28c-0.36-0.03-0.41,0.09-0.46,0.4c-0.08,0.47-0.14,0.99-0.38,1.38c-0.52,0.8-1.1,1.55-1.17,2.56   c-0.01,0.11-0.09,0.26-0.18,0.31c-0.13,0.06-0.29,0.03-0.44,0.03c-0.01-0.5-0.59-0.55-0.74-0.88c-0.35-0.75-0.6-1.54-0.92-2.39   C431.62,19.24,431.5,19.23,431.36,19.21 M474.24,43.24c0.04,0,0.08,0,0.12,0c0.21,0.43,0.57,0.85,0.61,1.29   c0.07,0.69,0.08,1.46-0.17,2.07c-0.32,0.77-0.45,0.73,0.32,1.07c0.15,0.07,0.3,0.15,0.45,0.17c0.53,0.08,0.82,0.47,0.99,0.89   c0.47,1.1,0.86,2.24,1.31,3.35c0.05,0.14,0.18,0.28,0.31,0.34c0.07,0.03,0.28-0.1,0.31-0.2c0.16-0.45,0.26-0.89,0.64-1.28   c0.23-0.24,0.25-0.96,0.06-1.23c-0.23-0.31-0.6-0.86-1.24-0.53c-0.08,0.04-0.35-0.07-0.39-0.17c-0.25-0.54-0.53-1.09-0.26-1.7   c0.64-1.47,0.39-2.88-0.24-4.28c-0.32-0.72-0.62-1.45-0.86-2.2c-0.16-0.49-0.23-1.01-0.31-1.52c-0.12-0.75-0.22-1.51-0.33-2.26   c0.06-0.04,0.13-0.08,0.19-0.12c0.19,0.17,0.45,0.31,0.55,0.52c0.3,0.64,0.8,1.01,1.41,1.28c0.21,0.09,0.45,0.14,0.65,0.25   c0.72,0.38,1.43,0.32,2.04-0.16c0.64-0.51,1.2-1.14,1.79-1.72c0.06-0.06,0.1-0.16,0.11-0.24c0.09-1.43,0.17-2.87,0.24-4.3   c0.02-0.41-0.21-0.54-0.59-0.48c-0.18,0.03-0.36,0.1-0.53,0.07c-0.17-0.03-0.42-0.14-0.44-0.26c-0.04-0.17,0.03-0.44,0.15-0.56   c0.19-0.18,0.47-0.26,0.7-0.39c0.12-0.07,0.27-0.12,0.34-0.22c0.54-0.82,1.03-1.68,1.61-2.47c0.42-0.58,0.53-1.17,0.5-1.86   c-0.04-0.77-0.03-1.57,0.12-2.33c0.32-1.6,0.75-3.17,1.15-4.86c-0.35,0-0.68-0.04-1.01,0.01c-1.19,0.17-2.32,0.29-3.56-0.1   c-1.38-0.43-2.21-1.15-2.73-2.48c-0.38-0.99-0.5-2.21-1.74-2.69c0.18-0.23,0.31-0.39,0.42-0.53c0.89,0.18,1.3,0.78,1.58,1.52   c0.24,0.64,0.48,1.28,0.77,1.9c0.23,0.5,0.55,0.92,1.1,1.17c1.3,0.58,2.65,0.6,4.02,0.41c0.37-0.05,0.73-0.14,1.09-0.22   c0.01-0.06,0.03-0.12,0.04-0.17c-0.24-0.1-0.48-0.29-0.71-0.29c-1.93-0.01-3.48-0.96-4.96-2.04c-0.28-0.21-0.53-0.48-0.74-0.76   c-0.45-0.62-0.85-1.27-1.3-1.89c-0.34-0.47-1.18-0.77-1.58-0.53c-0.62,0.39-1.24,0.78-1.59,1.49c-0.9,1.83-1.83,3.63-3.27,5.14   c-0.5,0.52-0.76,1.27-1.14,1.91c-0.06,0.1-0.17,0.26-0.24,0.25c-0.6-0.08-0.57,0.35-0.62,0.72c-0.06,0.39-0.15,0.78-0.17,1.18   c-0.04,0.83-0.42,1.7,0.33,2.46c0.11-0.22,0.21-0.43,0.34-0.71c0.69,0.48,0.08,1.08,0.18,1.58c0.1,0.51-0.1,1.09-0.16,1.64   c0.04,0,0.07,0,0.11,0.01c0.17-0.44,0.34-0.87,0.52-1.31c0.08,0.02,0.16,0.03,0.24,0.05c-0.05,0.81-0.1,1.62-0.15,2.49   c0.38-0.58,0.38-0.58,0.68-0.52c-0.08,0.69-0.16,1.39-0.24,2.08c0.04,0.01,0.07,0.01,0.11,0.02c0.13-0.23,0.25-0.46,0.38-0.69   c0.15,0.57,0.44,1.03,0.2,1.65c-0.42,1.05-0.28,2.13,0.39,3.08c0.19,0.26,0.45,0.53,0.13,0.78c-0.33,0.27-0.62-0.01-0.8-0.29   c-0.25-0.39-0.44-0.82-0.69-1.22c-0.08-0.13-0.24-0.28-0.37-0.28c-0.45-0.01-0.46-0.28-0.46-0.61c0-0.18-0.01-0.41-0.11-0.54   c-0.23-0.29-0.52-0.54-0.77-0.81c-0.07-0.07-0.13-0.19-0.12-0.27c0.06-0.45-0.17-0.75-0.49-1.01c-0.21-0.17-0.31-0.34-0.16-0.64   c0.2-0.4-0.04-0.68-0.36-0.91c-0.39-0.27-0.94-0.42-0.88-1.07c0.01-0.05-0.12-0.12-0.23-0.22c-0.26,0.61-0.67,0.4-1.07,0.23   c-0.22-0.09-0.45-0.15-0.67-0.2c-1.37-0.31-2.72-0.37-3.98,0.39c-0.49,0.29-0.91,0.63-0.99,1.26c-0.13,1.11-0.25,2.22-0.41,3.32   c-0.15,1.05-0.19,2.14-0.54,3.11c-0.31,0.86-0.51,1.65-0.35,2.55c0.08,0.41,0.09,0.88-0.03,1.27c-0.11,0.35-0.44,0.62-0.68,0.92   c-0.13-1.02-0.14-2.05-0.12-3.09c0.01-0.43,0-0.91,0.18-1.27c0.55-1.12,0.65-2.32,0.74-3.52c0.1-1.38,0.02-2.79,0.74-4.06   c0.05-0.09,0.03-0.23,0.05-0.38c-0.14-0.01-0.25-0.04-0.35-0.03c-1.29,0.11-2.58,0.22-3.88,0.35c-0.43,0.04-0.81,0.64-0.86,1.12   c-0.08,0.94-0.01,1.92-0.5,2.79c-0.07,0.13-0.11,0.33-0.08,0.46c0.15,0.53,0.26,1.11,0.55,1.56c0.37,0.57,0.53,1.1,0.47,1.77   c-0.03,0.35,0.07,0.79,0.27,1.07c0.6,0.79,0.99,1.59,0.99,2.62c0,0.44,0.09,0.85-0.38,1.04c-0.29,0.12-0.58-0.31-0.57-0.93   c0.02-0.7-0.16-1.34-0.62-1.85c-0.51-0.57-0.7-1.23-0.66-1.94c0.04-0.68-0.21-1.19-0.57-1.74c-0.39-0.59-0.65-1.26-0.4-2.03   c0.31-0.94,0.55-1.9,0.81-2.85c0.24-0.88-0.18-1.46-1.08-1.38c-0.5,0.04-0.99,0.28-1.48,0.45c-0.62,0.22-0.91,0.87-1.57,1.14   c-0.55,0.23-0.95,0.96-1.31,1.53c-0.54,0.85-0.99,1.75-1.79,2.41c-0.61,0.51-1.31,1.01-1.71,1.68c-0.56,0.93-0.9,2-1.29,3.02   c-0.39,1-0.73,2.02-1.08,3.03c-0.08,0.22-0.16,0.44-0.21,0.66c-0.19,0.84-0.27,1.72-0.6,2.51c-0.26,0.62,0.03,1.01,0.15,1.66   c0.33-0.77,0.6-1.38,0.85-1.99c0.06-0.14,0-0.32,0.02-0.48c0.02-0.17,0.03-0.36,0.12-0.5c0.43-0.66,0.9-1.29,1.31-1.97   c0.33-0.55,0.57-1.17,0.88-1.73c0.32-0.57,0.7-0.57,1.09-0.08c0.24,0.3,0.48,0.69,0.93,0.58c0.06-0.41,0.11-0.75,0.16-1.1   c0.06,0,0.13,0,0.2-0.01c0.04,0.16,0.14,0.32,0.12,0.47c-0.1,0.77,0.43,0.97,1,1.13c0.75,0.21,1.18,0.75,1.58,1.38   c0.39,0.6,0.9,1.11,1.38,1.65c0.2,0.23,0.41,0.24,0.58-0.09c0.7-1.35,0.38-2.65-0.17-3.94c-0.16-0.38-0.39-0.72-0.54-1.11   c-0.19-0.47-0.3-0.97-0.49-1.43c-0.07-0.17-0.29-0.34-0.46-0.36c-0.13-0.01-0.34,0.19-0.41,0.34c-0.15,0.3-0.2,0.65-0.34,0.96   c-0.07,0.16-0.26,0.39-0.38,0.38c-0.76-0.02-1.53-0.2-2.11,0.52c-0.39-0.88-0.35-0.98,0.45-1.3c0.15-0.06,0.31-0.12,0.46-0.12   c0.75,0,1.17-0.34,1.2-1.11c0.02-0.33,0.07-0.66,0.11-0.99c0.02-0.13,0.03-0.26,0.04-0.38c0.13,0.05,0.28,0.08,0.4,0.16   c0.35,0.21,0.69,0.43,1.03,0.65c0.04-0.04,0.08-0.09,0.11-0.13c-0.2-0.52-0.4-1.03-0.59-1.56c-0.04-0.1-0.06-0.28,0-0.33   c0.06-0.06,0.25-0.07,0.33-0.02c0.18,0.12,0.33,0.28,0.48,0.43c0.04,0.04,0.06,0.16,0.09,0.16c0.56,0.02,0.6,0.53,0.8,0.86   c0.27,0.45,0.41,0.99,0.72,1.41c0.3,0.41,0.02,1.17,0.77,1.3c0.02,0,0.03,0.06,0.04,0.1c0.2,1.17,0.42,2.33,0.58,3.51   c0.02,0.17-0.28,0.38-0.43,0.57c-0.12-0.21-0.29-0.41-0.36-0.64c-0.08-0.28-0.07-0.58-0.1-0.88c-0.13,0.06-0.16,0.11-0.16,0.15   c0.23,1.6-0.04,3.07-1.17,4.31c-0.08,0.08-0.09,0.23-0.13,0.34c-0.12,0.33-0.21,0.68-0.38,0.99c-0.28,0.52-0.68,0.98-0.89,1.52   c-0.58,1.47-1.15,2.95-1.62,4.46c-0.38,1.22-0.64,2.47-0.93,3.72c-0.09,0.36-0.26,0.57-0.64,0.58c-0.24-0.42-0.47-0.81-0.68-1.22   c-0.19-0.35-0.39-0.61-0.85-0.63c-0.23-0.01-0.45-0.27-0.66-0.43c-0.24-0.19-0.44-0.45-0.71-0.57c-0.97-0.43-1.65-1.19-2.31-1.95   c-0.32-0.37-0.6-0.79-0.8-1.23c-0.34-0.73-0.59-1.5-0.89-2.25c-0.07,0-0.13-0.01-0.2-0.01c-0.05,0.17-0.13,0.35-0.16,0.52   c-0.1,0.53-0.19,1.06-0.27,1.59c-0.02,0.12,0,0.25,0.03,0.36c0.18,0.6,0.45,1.18,0.52,1.78c0.1,0.83,0.06,1.68,0.04,2.52   c-0.04,1.67-0.11,3.35-0.15,5.02c-0.02,1.11,0.57,1.96,1.29,2.7c0.37,0.38,0.65,0.75,0.72,1.27c0.04,0.28,0.04,0.58,0.11,0.85   c0.4,1.38,0.59,2.78,0.5,4.22c-0.01,0.19,0,0.43,0.11,0.57c0.63,0.84,1.18,1.8,1.98,2.46c1.58,1.31,3.29,2.46,4.95,3.66   c0.15,0.11,0.36,0.14,0.67,0.25c-0.2-0.69-0.33-1.25-0.51-1.79c-0.12-0.36-0.25-0.76-0.5-1.02c-0.61-0.63-0.99-1.34-1.08-2.21   c-0.01-0.14,0.07-0.29,0.11-0.44c0.14,0.06,0.31,0.08,0.41,0.18c0.11,0.1,0.21,0.26,0.25,0.41c0.48,1.79,1.97,2.31,3.52,2.58   c0.98,0.17,2.03,0.01,3.05-0.04c0.95-0.05,1.9-0.19,2.86-0.23c1.15-0.04,2.31,0.06,3.46-0.04c0.81-0.07,1.63-0.27,2.39-0.57   c0.43-0.17,0.76-0.62,1.1-0.97c0.16-0.16,0.27-0.38,0.39-0.58c0.67-1.12,1.74-1.97,2.2-3.23c0.08-0.23,0.15-0.47,0.26-0.69   c0.62-1.27,1.56-2.39,1.75-3.87h0.65c-0.26,0.59-0.48,1.1-0.7,1.62c-0.06,0.14-0.2,0.35-0.15,0.4c0.43,0.56-0.04,0.98-0.21,1.42   c-0.29,0.77-0.66,1.51-1.01,2.31c0.15,0.04,0.26,0.06,0.31,0.08c-0.19,0.74-0.32,1.47-0.56,2.15c-0.21,0.6-0.44,1.15-0.46,1.83   c-0.02,1.07-0.19,2.15-0.37,3.21c-0.09,0.54,0.03,0.86,0.51,1.08c0.29,0.13,0.58,0.42,0.84,0.38c0.63-0.09,1.26-0.28,1.86-0.52   c0.42-0.17,0.74-0.12,1.01,0.2c0.5,0.58,1.23,0.93,1.58,1.67c0.06,0.12,0.43,0.13,0.66,0.13c0.11,0,0.21-0.14,0.32-0.21   c-0.11-0.13-0.2-0.27-0.33-0.38c-0.32-0.28-0.27-0.58,0.14-0.8c0.27-0.15,0.54-0.32,0.87-0.52c-0.29-0.2-0.5-0.31-0.67-0.46   c-0.14-0.14-0.23-0.34-0.34-0.51c0.17-0.11,0.33-0.23,0.52-0.32c0.13-0.06,0.31-0.02,0.41-0.1c0.15-0.1,0.3-0.25,0.37-0.42   c0.03-0.07-0.16-0.24-0.28-0.33c-0.11-0.09-0.26-0.13-0.38-0.21c-0.49-0.31-0.65-0.83-0.33-1.28c0.26-0.38,0.39-0.68,0.04-1.08   c-0.09-0.1-0.03-0.34-0.02-0.52c0.01-0.14,0.08-0.3,0.04-0.41c-0.23-0.59,0.15-0.98,0.44-1.39c0.11-0.16,0.25-0.3,0.38-0.45   c-0.46-0.13-0.83-0.23-1.27-0.35c0.14-0.26,0.21-0.44,0.32-0.59c0.27-0.4,0.57-0.79,0.84-1.19c0.37-0.57,0.27-0.9-0.33-1.2   c-0.41-0.2-0.43-0.4-0.09-0.71c0.07-0.07,0.13-0.14,0.21-0.22c-0.79-0.47-0.81-0.58-0.24-1.28c0.25-0.31,0.5-0.62,0.73-0.94   c0.08-0.11,0.18-0.3,0.13-0.39c-0.31-0.62,0.09-0.78,0.55-0.94c0.15-0.05,0.27-0.17,0.44-0.27c-0.4-0.56-0.5-1.07,0.1-1.53   c0.1-0.08,0.12-0.26,0.17-0.39c0.16-0.42,0.27-0.87,0.49-1.26c0.74-1.33,0.65-2.76,0.28-4.1c-0.56-2.04-1.34-4.01-2.04-6.01   c-0.18-0.52-0.67-0.69-1.14-0.63c-0.24,0.04-0.61,0.4-0.63,0.64c-0.1,1.14-0.66,2.11-1.05,3.15c-0.08,0.2-0.42,0.43-0.64,0.43   c-0.41,0-0.58,0.16-0.69,0.51c-0.07,0.22-0.15,0.45-0.26,0.65c-0.28,0.52-0.68,0.96-1.29,0.92c-0.66-0.05-1.06,0.09-1.18,0.79   c-0.03,0.16-0.2,0.29-0.22,0.32c0.18,0.18,0.47,0.41,0.44,0.46c-0.25,0.46-0.27,1.08-0.85,1.32c-0.01,0.28,0,0.56-0.05,0.82   c-0.03,0.15-0.16,0.33-0.29,0.39c-0.09,0.03-0.28-0.12-0.38-0.23c-0.1-0.12-0.17-0.28-0.21-0.43c-0.11-0.52-0.2-1.05-0.32-1.63   h0.66c0-0.52,0.16-1.09-0.03-1.49c-0.66-1.43-1.44-2.81-2.16-4.22c-0.11-0.22-0.16-0.47-0.24-0.7c0.07-0.05,0.14-0.1,0.21-0.16   c0.26,0.22,0.62,0.4,0.76,0.68c0.6,1.13,1.13,2.29,1.69,3.43c0.1,0.21,0.24,0.41,0.41,0.69c0.19-0.77,0.47-1.04,0.9-0.96   c0.96,0.18,1.64-0.29,1.66-1.25c0.01-0.53,0.24-0.66,0.67-0.75c0.91-0.2,1.46-1.07,1.3-1.99c-0.16,0.25-0.27,0.63-0.5,0.72   c-0.21,0.09-0.55-0.12-0.88-0.22c-0.22,0.28-0.59,0.57-0.72,0.94c-0.16,0.47-0.34,0.73-0.86,0.66c-0.1-0.01-0.21,0.02-0.32,0.06   c-0.59,0.2-0.95-0.02-1.03-0.63c-0.06-0.48-0.15-0.97-0.14-1.45c0.02-0.56-0.34-1.28,0.56-1.54c0.1-0.03,0.16-0.19,0.25-0.28   c0.16-0.15,0.34-0.29,0.5-0.42c0.19,0.14,0.38,0.37,0.46,0.33c0.5-0.21,0.67,0.14,0.89,0.49c0.08-0.42,0.11-0.81,0.11-1.2   c0-0.35,0.16-0.46,0.5-0.48c0.38-0.02,0.75-0.11,1.03-0.15c0.08-0.42,0.11-0.71,0.19-0.99c0.09-0.3,0.32-0.58,0.31-0.86   c-0.02-0.43,0.24-0.52,0.53-0.61c0.11-0.03,0.23-0.01,0.32-0.01C474.19,43.87,474.21,43.55,474.24,43.24 M435.89,85.96   c0.41-0.75,0.62-1.55,1.25-2.23c0.65-0.7,0.98-1.69,1.43-2.56c0.13-0.25,0.2-0.54,0.28-0.81c0.05-0.17,0.12-0.38,0.06-0.52   c-0.57-1.22-0.48-2.54-0.61-3.82c-0.04-0.34-0.03-0.7-0.13-1.02c-0.32-0.96-0.11-1.91,0.09-2.83c0.12-0.54,0.09-1.01-0.18-1.44   c-0.7-1.1-0.81-2.29-0.81-3.56c0-1.56-0.05-3.12-0.66-4.62c-0.24-0.6-0.1-1.37-0.11-2.06c0-0.12,0.09-0.31,0.2-0.36   c0.48-0.25,0.4-0.59,0.24-0.99c-0.4-1.02-0.24-1.98,0.28-2.95c0.3-0.55,0.61-1.06,0.98-1.56c0.25-0.34,0.18-0.9,0.32-1.35   c0.13-0.41,0.36-0.79,0.54-1.19c0.04-0.09,0.12-0.19,0.11-0.28c-0.06-0.47-0.18-0.94-0.22-1.41c-0.04-0.48-0.08-0.97,0.01-1.44   c0.1-0.54,0.11-1.01-0.11-1.55c-0.96-2.31-1.78-4.68-2.81-6.96c-0.47-1.05-1.22-2-1.99-2.87c-0.82-0.92-1.18-1.91-1.2-3.11   c-0.01-0.57-0.26-1.13-0.29-1.7c-0.07-1.51-0.08-3.02-0.11-4.53c-0.03-1.95-0.32-3.83-1.29-5.56c-0.25-0.44-0.34-0.98-0.46-1.49   c-0.33-1.4-0.16-2.77,0.22-4.16c0.39-1.42,0.29-2.89,0.17-4.35c-0.08-0.98,0-1.98,0.08-2.96c0.02-0.22,0.29-0.56,0.5-0.62   c1.04-0.29,2.11-0.52,3.15-0.06c1.23,0.54,2.49,1.07,3.63,1.76c0.98,0.59,1.76,1.48,2.3,2.53c0.58,1.12,1.44,2.02,2.37,2.85   c0.53,0.48,1.13,0.9,1.72,1.29c1.1,0.72,1.67,1.81,2.09,2.99c0.27,0.75,0.38,1.56,0.61,2.32c0.21,0.68,0.42,1.38,0.76,2.01   c0.64,1.21,1.36,2.38,2.05,3.56c0.13,0.23,0.3,0.43,0.39,0.58c0.3-0.26,0.55-0.53,0.85-0.7c0.61-0.33,1.17-0.62,1.98-0.5   c0.69,0.11,1.39,0.32,2.08,0.31c0.86-0.01,1.73-0.24,2.59-0.4c1.59-0.3,3.18-0.63,4.77-0.93c0.17-0.03,0.35,0.03,0.53,0.07   c0.62,0.12,1.23,0.27,1.85,0.35c0.51,0.07,0.64-0.39,0.72-0.72c0.2-0.8,0.34-1.62,0.47-2.44c0.08-0.52,0.04-1.05,0.13-1.56   c0.15-0.82,0.39-1.59,1.11-2.15c0.6-0.46,1.11-1.03,1.66-1.55c0.03-0.03,0.04-0.07,0.07-0.08c1.14-0.52,1.58-1.69,2.33-2.57   c0.93-1.08,1.76-2.25,2.73-3.29c0.57-0.62,1.23-1.27,2.18-1.25c0.28,0,0.57,0.17,0.83,0.3c1.14,0.6,1.82,1.59,2.39,2.7   c0.14,0.27,0.44,0.47,0.7,0.65c1.22,0.84,2.44,1.66,4.01,1.71c1.49,0.04,1.86,0.94,1.63,2.19c-0.26,1.4-0.52,2.81-1.04,4.16   c-0.38,1-0.61,2.07-0.35,3.24c0.17,0.72-0.17,1.57-0.34,2.35c-0.07,0.35-0.24,0.69-0.44,0.99c-0.9,1.36-1.02,2.86-0.93,4.43   c0.04,0.78-0.01,1.59-0.21,2.34c-0.17,0.63-0.62,1.19-0.96,1.77c-0.14,0.25-0.29,0.49-0.45,0.74c-0.17,0.27-0.19,0.69-0.67,0.67   c-0.02,0-0.05,0.07-0.08,0.11c-1,1.79-2.07,3.57-1.81,5.75c0.07,0.6,0.1,1.13-0.21,1.71c-0.27,0.51,0.07,1.12,0.78,1.5   c0.54,0.29,0.73,0.66,0.63,1.27c-0.15,0.92-0.22,1.85-0.35,2.77c-0.04,0.3,0.03,0.5,0.32,0.59c0.31,0.09,0.34,0.31,0.34,0.58   c-0.01,0.5,0,1,0,1.49c0.73,0.22,0.79,0.32,0.63,1.06c-0.08,0.39-0.18,0.77-0.27,1.19c0.47,0.17,0.45,0.58,0.38,1.01   c-0.05,0.3-0.12,0.6-0.17,0.9c-0.04,0.27-0.17,0.59,0.29,0.66c0.06,0.01,0.14,0.14,0.14,0.21c0,0.6,0.11,1.24-0.07,1.78   c-0.34,1.08-1.31,1.69-2.13,2.38c-0.11,0.09-0.33,0.05-0.55-0.01c0.95-1.22,2.42-2.08,2.32-3.89c-0.28,0.34-0.54,0.71-0.85,1.02   c-0.1,0.1-0.33,0.08-0.5,0.11c-0.03-0.15-0.12-0.33-0.08-0.45c0.24-0.65,0.51-1.28,0.77-1.92c0.04-0.11,0.06-0.24,0.09-0.35   c-0.74-0.33-0.76-0.38-0.49-1.18c0.08-0.24,0.2-0.47,0.23-0.72c0.02-0.17-0.03-0.45-0.14-0.51c-0.42-0.23-0.43-0.58-0.42-0.97   c0.01-0.27,0.02-0.54-0.01-0.81c-0.01-0.12-0.07-0.32-0.16-0.35c-0.66-0.22-0.69-0.7-0.55-1.26c0.04-0.15,0.07-0.31,0.1-0.47   c-0.24-0.06-0.46-0.12-0.78-0.2c0.13,0.66,0.3,1.28,0.36,1.91c0.11,1.16,0.17,2.33,0.21,3.49c0.01,0.27-0.12,0.56-0.22,0.83   c-0.32,0.83-0.65,1.66-0.98,2.49c-0.03,0.07-0.08,0.15-0.06,0.2c0.37,1.3-0.61,1.94-1.34,2.75c0.33,0.62,0.33,1.25-0.18,1.84   c-0.07,0.08-0.11,0.28-0.06,0.34c0.62,0.81,0.26,1.61-0.1,2.35c-0.19,0.4-0.16,0.64,0.14,0.86c0.46,0.33,0.47,0.67,0.1,1.06   c-0.24,0.25-0.32,0.5-0.19,0.87c0.08,0.21-0.1,0.51-0.18,0.87c1.01,0.91-0.06,1.46-0.61,2.19c0.25,0.19,0.47,0.41,0.72,0.55   c0.39,0.21,0.63,0.49,0.58,0.94c-0.06,0.44-0.37,0.63-0.78,0.7c-0.06,0.01-0.12,0.06-0.31,0.16c0.28,0.23,0.49,0.41,0.71,0.59   c0.14,0.12,0.28,0.24,0.43,0.36c-0.18,0.17-0.33,0.4-0.54,0.48c-0.27,0.11-0.59,0.11-0.92,0.16c0.18,0.34,0.39,0.62,0.49,0.93   c0.17,0.54-0.05,0.76-0.61,0.76c-0.31,0-0.64,0.06-0.94,0.16c-0.47,0.15-0.83-0.03-1.04-0.39c-0.81-1.36-1.72-1.78-3.25-1.42   c-0.58,0.14-1.14,0.29-1.7-0.14c-0.26-0.21-0.4,0.07-0.49,0.31c-0.38,1.06-0.73,2.13-1.14,3.19c-0.23,0.59-0.43,1.25-0.83,1.71   c-0.81,0.93-1.61,1.93-2.78,2.46c-1.21,0.55-2.46,0.89-3.85,0.75c-1.26-0.13-2.46-0.37-3.57-0.94c-0.67-0.34-1.27-0.8-1.9-1.22   c-0.09-0.06-0.19-0.14-0.21-0.23c-0.38-1.51-1.61-2.66-1.82-4.24c-0.02-0.14-0.11-0.3-0.07-0.42c0.23-0.72-0.12-1.32-0.34-1.95   c-0.06-0.17-0.03-0.36-0.04-0.39c-0.72-0.46-1.39-0.86-2.02-1.31c-0.8-0.58-1.56-1.22-2.36-1.8c-0.22-0.16-0.51-0.21-0.77-0.3   c-0.1-0.04-0.23-0.04-0.3-0.1c-0.42-0.38-0.87-0.74-1.22-1.17c-0.52-0.65-1.27-0.95-1.91-1.41c-0.67-0.48-1.01-1.18-1.3-1.98   c-0.3-0.84-0.14-1.82-0.84-2.54c-0.28-0.29-0.45-0.69-0.66-1.05c-0.06-0.11-0.17-0.25-0.14-0.34c0.35-1.03-0.64-1.52-0.92-2.29   c-0.12-0.32-0.28-0.56-0.06-0.89c0.09-0.13,0.1-0.36,0.05-0.52c-0.17-0.6-0.38-1.18-0.58-1.79c-0.74,0.41-0.98,1.05-0.76,1.85   c0.1,0.35,0.2,0.69,0.32,1.03c0.36,1.06,0.44,2.16,0.43,3.27c-0.01,1.71,0.18,3.37,1.11,4.86c0.12,0.19,0.11,0.49,0.08,0.73   c-0.07,0.44-0.2,0.88-0.32,1.31c-0.14,0.53-0.18,1.02,0.02,1.58c0.2,0.54,0.24,1.17,0.23,1.75c-0.01,0.93,0.09,1.83,0.47,2.69   c0.06,0.15,0.15,0.32,0.12,0.46c-0.15,0.67-0.31,1.34-0.54,1.99c-0.15,0.43-0.49,0.8-0.62,1.23c-0.35,1.17-1.28,1.93-1.92,2.89   C436.45,86.12,436.23,86.19,435.89,85.96"
   clip-path="url(#SVGID_2_)"
   id="path12" />
	<path
   class="st0"
   d="M478.6,91.06c-0.54-0.93-0.91-2.06-0.62-3.31c0.06-0.26,0.32-0.47,0.56-0.8c0.12-0.56,0.27-1.28,0.43-2   c0.1-0.45,0.28-0.9-0.32-1.18c-0.09-0.04-0.15-0.33-0.11-0.48c0.35-1.35,0.72-2.7,1.07-4.05c0.09-0.36,0.18-0.74,0.16-1.11   c-0.02-0.28-0.21-0.55-0.33-0.83c-0.05,0.02-0.1,0.04-0.15,0.05c0.1-0.61,0.23-1.21,0.28-1.82c0.01-0.19-0.2-0.39-0.31-0.59   c-0.05,0.01-0.1,0.02-0.15,0.02c0.21-0.6,0.42-1.21,0.65-1.81c0.3-0.78,0.62-1.56,0.91-2.34c0.19-0.53-0.34-0.47-0.63-0.7   c0.2-0.54,0.37-1.12,0.63-1.66c0.08-0.17,0.39-0.22,0.59-0.33c0.04,0.06,0.07,0.11,0.11,0.17c-0.13,0.12-0.26,0.24-0.39,0.37   c0.9,0.65,0.91,0.65,0.52,1.69c-0.32,0.83-0.67,1.65-1.02,2.52c0.12,0,0.19-0.01,0.25,0c0.19,0.02,0.43-0.01,0.55,0.09   c0.08,0.07,0.03,0.35-0.03,0.51c-0.25,0.67-0.53,1.33-0.79,1.99c-0.08,0.21-0.3,0.44,0.12,0.6c0.11,0.04,0.2,0.41,0.15,0.58   c-0.35,1.25-0.19,2.59-0.77,3.79c-0.37,0.76-0.62,1.58-0.93,2.38c0.07,0,0.14,0,0.21-0.01c0.09,0.31,0.22,0.62,0.26,0.93   c0.2,1.64-0.45,3.13-0.88,4.65c-0.05,0.19-0.1,0.4-0.06,0.59c0.12,0.67,0.23,1.35,0.43,2c0.47,1.55,0.98,3.08,1.48,4.61   c0.12,0.36,0.29,0.69,0.42,1.05c0.13,0.37,0.32,0.75,0.32,1.13c0,0.85,0.21,1.73-0.19,2.55c-0.42,0.86,0.3,1.43,0.53,2.12   c0.18,0.52,0.54,0.98,0.73,1.49c0.6,1.65,1.17,3.32,1.74,4.99c0.04,0.13,0.03,0.28,0.04,0.41c-0.04,0.04-0.08,0.07-0.13,0.11   c-0.13-0.11-0.33-0.2-0.39-0.35c-0.83-2.03-1.63-4.06-2.45-6.1c-0.05-0.12-0.09-0.25-0.18-0.33c-0.71-0.6-0.61-1.35-0.46-2.14   c0.06-0.33-0.03-0.68,0.02-1.01c0.2-1.21-0.22-2.25-0.67-3.35c-0.22-0.53-0.35-1.2-0.46-1.83c-0.12-0.73-0.43-1.43-0.61-2.15   C478.64,91.88,478.64,91.53,478.6,91.06"
   clip-path="url(#SVGID_2_)"
   id="path14" />
	<path
   class="st0"
   d="M432.83,94.64c-0.09,0.38-0.19,0.76-0.25,1.15c-0.09,0.56-0.08,1.16-0.26,1.69c-0.23,0.67-0.58,1.31-0.95,1.91   c-0.39,0.62-0.91,1.15-1.3,1.77c-0.83,1.28-1.49,2.65-1.71,4.17c-0.19,1.33-0.31,2.68-0.42,4.02c-0.03,0.37,0.13,0.76,0.15,1.14   c0.01,0.19-0.12,0.38-0.2,0.57c-0.14-0.12-0.4-0.24-0.41-0.37c-0.04-0.6-0.02-1.21-0.01-1.81c0.02-0.89,0-1.79,0.11-2.68   c0.14-1.18,0.33-2.35,0.6-3.51c0.11-0.47,0.37-0.99,1.03-1.02c0.06,0,0.14-0.06,0.16-0.12c0.23-0.57,0.88-0.9,0.86-1.61   c0-0.19,0.18-0.38,0.26-0.57c0.44-1.11,0.88-2.22,1.29-3.35c0.08-0.22,0.06-0.52-0.02-0.75c-0.21-0.63-0.09-1.21,0.36-1.41   c0.5-0.22,0.68-0.1,0.68,0.44c0,0.11,0,0.22,0,0.32L432.83,94.64z"
   clip-path="url(#SVGID_2_)"
   id="path16" />
	<path
   class="st0"
   d="M434.37,87.37v0.26c0.43-0.52,0.88-1.07,1.33-1.62c0.06,0.02,0.11,0.03,0.17,0.05c0.04,0.28,0.2,0.62,0.1,0.82   c-0.14,0.27-0.49,0.44-0.75,0.65c-0.39,0.31-0.77,0.64-1.17,0.93c-0.33,0.24-0.68,0.43-1.01,0.63c-0.03,0.16-0.02,0.36-0.1,0.51   c-0.21,0.38-0.51,0.71-0.68,1.1c-0.27,0.63-0.46,1.29-0.68,1.96c0.32,0.12,0.5,0.19,0.71,0.28c-0.18,0.48-0.37,0.88-0.9,1.06   c-0.4,0.14-0.76,0.41-1.16,0.5c-0.23,0.05-0.51-0.15-0.77-0.23c0-0.07,0-0.13-0.01-0.2c0.32-0.24,0.63-0.49,0.97-0.7   c0.51-0.3,0.77-0.89,0.62-1.45c-0.04-0.13-0.03-0.31,0.03-0.43c0.35-0.69,0.6-1.47,1.11-2.01   C432.86,88.77,433.28,87.77,434.37,87.37"
   clip-path="url(#SVGID_2_)"
   id="path18" />
	<path
   class="st0"
   d="M460.51,103.1c-0.21-0.22-0.56-0.43-0.61-0.65c-0.23-1.11-0.38-2.22-0.56-3.33c-0.14-0.87-0.34-1.74-0.41-2.62   c-0.02-0.29,0.27-0.58,0.41-0.87c0.21,0.01,0.41,0.02,0.62,0.02c0.32,2.47,0.65,4.93,0.97,7.4   C460.79,103.07,460.65,103.09,460.51,103.1"
   clip-path="url(#SVGID_2_)"
   id="path20" />
	<path
   class="st0"
   d="M455.55,96.04c-0.58,2.54-1.17,5.08-1.75,7.62c-0.08-0.01-0.15-0.02-0.23-0.03c-0.01-0.11-0.04-0.22-0.02-0.33   c0.13-0.71,0.12-1.47,0.43-2.11c0.56-1.17,0.21-2.44,0.68-3.6c0.21-0.54,0.4-1.08,0.6-1.62C455.36,95.99,455.45,96.02,455.55,96.04   "
   clip-path="url(#SVGID_2_)"
   id="path22" />
	<path
   class="st0"
   d="M479.74,67.6c0.46-0.96,0.68-2,1.5-2.84c0.07-0.07,0.27-0.13,0.32-0.1c0.1,0.06,0.2,0.21,0.17,0.3   c-0.1,0.36-0.2,0.73-0.38,1.07c-0.26,0.49-0.58,0.96-0.91,1.41c-0.1,0.14-0.33,0.21-0.5,0.31C479.88,67.7,479.81,67.65,479.74,67.6   "
   clip-path="url(#SVGID_2_)"
   id="path24" />
	<path
   class="st0"
   d="M473.43,95.33c0.89,1.13,1.28,2.51,2,3.73C474.19,98.09,474.1,96.58,473.43,95.33"
   clip-path="url(#SVGID_2_)"
   id="path26" />
	<path
   class="st0"
   d="M468.73,96.42c-0.84-1.06-1.55-2.15-1.67-3.36c0.67,1.11,1.33,2.22,2,3.32   C468.95,96.39,468.84,96.4,468.73,96.42"
   clip-path="url(#SVGID_2_)"
   id="path28" />
	<path
   class="st0"
   d="M453.1,63.1c0.29,0.06,0.49,0.1,0.75,0.15c0.04-0.23,0.08-0.43,0.13-0.75   C453.63,62.74,453.41,62.89,453.1,63.1 M453.56,64.42c0.09-0.32,0.16-0.57,0.24-0.86h-0.43c-0.08,0.32-0.15,0.57-0.23,0.84   C453.29,64.4,453.43,64.41,453.56,64.42 M460.85,69.91c0.49-0.58,0.49-0.58,1.35-0.91c0.25-0.1,0.7-1.02,0.61-1.25   c-0.01-0.03-0.03-0.07-0.05-0.09c-0.32-0.33-0.72-0.54-1.15-0.39c-0.26,0.09-0.53,0.36-0.65,0.61c-0.24,0.53-0.38,1.11-0.56,1.67   C460.55,69.67,460.7,69.79,460.85,69.91 M455.53,69.21c0.2-0.02,0.37-0.03,0.53-0.05c0.02-0.05,0.05-0.11,0.07-0.16   c-0.36-0.23-0.69-0.53-1.08-0.66c-0.62-0.2-1.29-0.27-1.93-0.41c-0.44-0.09-0.52,0.14-0.41,0.48c0.06,0.17,0.19,0.38,0.34,0.45   c0.61,0.28,1.23,0.55,1.86,0.76c0.23,0.08,0.52,0.01,0.83,0.01C455.66,69.47,455.6,69.35,455.53,69.21 M459.09,64.51   c0.57-0.25,1.15-0.5,1.78-0.77c0.06,0.03,0.2,0.12,0.41,0.23c0.07-0.09,0.14-0.19,0.21-0.29c0.23-0.3,0.46-0.34,0.78-0.09   c0.11,0.08,0.41,0.06,0.52-0.04c0.19-0.17,0.14-0.38-0.12-0.51c-0.11-0.05-0.25-0.11-0.32-0.2c-0.06-0.09-0.09-0.24-0.06-0.34   c0.02-0.07,0.2-0.17,0.24-0.14c0.31,0.18,0.73,0.18,0.88,0.64c0.27,0.8,0.54,1.6,0.93,2.34c0.33,0.63,0.32,1.21,0.21,1.87   c-0.15,0.89-0.54,1.55-1.32,2.02c-0.24,0.14-0.32,0.54-0.54,0.74c-0.48,0.44-1.01,0.84-1.52,1.25c-0.09,0.07-0.24,0.08-0.31,0.16   c-0.67,0.73-1.16,0.71-1.67-0.06c-0.25,0.01-0.48,0.01-0.71,0.04c-0.17,0.03-0.42,0.06-0.48,0.17c-0.27,0.52-0.72,0.38-1.12,0.31   c-0.81-0.14-1.63-0.31-2.43-0.52c-0.65-0.17-1.34-0.32-1.9-0.66c-0.4-0.24-0.75-0.75-0.89-1.21c-0.27-0.87-0.39-1.79-0.54-2.7   c-0.04-0.25,0.01-0.55,0.1-0.79c0.28-0.7,0.5-1.46,0.94-2.05c0.34-0.46,0.57-0.72,0.5-1.39c-0.11-1.03,0.18-2.1,0.26-3.16   c0.12-1.65,0.19-3.3,0.29-4.95c-0.05-0.02-0.1-0.03-0.16-0.05c-0.11,0.22-0.17,0.48-0.33,0.66c-0.13,0.14-0.48,0.29-0.54,0.24   c-0.42-0.42-1.02-0.67-1.08-1.4c-0.06-0.71-0.27-1.4-0.35-2.11c-0.04-0.34,0.05-0.69,0.08-1.08c-0.13-0.01-0.3-0.03-0.58-0.06   c0.42-1.43,0.82-2.78,2.58-3.15c-0.05,0.11-0.08,0.21-0.13,0.29c-0.35,0.56-0.33,1.3,0.05,1.8c0.05,0.06,0.15,0.12,0.22,0.11   c0.06-0.01,0.15-0.11,0.16-0.18c0.03-0.18-0.02-0.37,0.04-0.54c0.05-0.18,0.16-0.43,0.29-0.47c0.14-0.04,0.38,0.1,0.5,0.23   c0.14,0.15,0.24,0.37,0.27,0.57c0.07,0.53,0.16,1.02,0.48,1.51c0.22,0.34,0.12,0.9,0.13,1.35c0.01,0.25-0.05,0.49-0.06,0.64   c0.37,0.29,0.89,0.48,0.92,0.75c0.09,0.64,0.01,1.33-0.14,1.96c-0.03,0.12-0.73,0.1-1.11,0.1c-0.21,0-0.42-0.1-0.63-0.15   c-0.04,0.22-0.12,0.44-0.1,0.66c0.02,0.42,0.14,0.84,0.14,1.26c0,0.41-0.09,0.82-0.15,1.32c0.29-0.21,0.55-0.36,0.77-0.55   c0.34-0.3,0.55-0.29,0.81,0.1c0.07,0.1,0.17,0.18,0.26,0.28c-0.08,0.33-0.53,0.64-0.04,1.01c0.12-0.09,0.25-0.18,0.39-0.28   c0.03,0.04,0.08,0.08,0.08,0.12c-0.05,0.96,0.71,1.8,0.39,2.81c-0.06,0.18,0.07,0.42,0.12,0.62c0.06,0.23,0.17,0.45,0.19,0.67   c0.04,0.54,0.11,1.05,0.6,1.4c0.32-0.15,0.08-0.92,0.72-0.78C458.36,64.15,458.71,64.35,459.09,64.51"
   clip-path="url(#SVGID_2_)"
   id="path30" />
	<path
   class="st0"
   d="M460.55,39.52c0.15,0.26,0.29,0.54,0.47,0.78c0.35,0.45,0.81,0.84,1.07,1.34c0.16,0.31,0.31,0.48,0.61,0.59   c0.21,0.08,0.41,0.22,0.62,0.31c0.1,0.04,0.25,0.09,0.34,0.05c0.9-0.4,1.79-0.82,2.68-1.24c0.29-0.14,0.56-0.31,0.86-0.43   c0.49-0.2,0.86-0.71,0.64-0.97c-0.2-0.24-0.45-0.47-0.73-0.58c-0.72-0.3-1.42-0.6-1.86-1.3c-0.54-0.84-2.27-1-2.99-0.29   c-0.38,0.38-0.71,0.87-1.17,1.08C460.72,39.01,460.66,39.16,460.55,39.52 M459.59,41.58h1.21c-0.11-0.17-0.21-0.37-0.34-0.54   c-0.68-0.86-0.6-2.42,0.31-2.97c0.42-0.25,0.77-0.55,1.17-0.81c0.52-0.35,0.67-0.83,0.74-1.42c0.08-0.65,0.27-1.29,0.46-1.92   c0.04-0.14,0.25-0.24,0.39-0.34c0.18-0.13,0.37-0.26,0.55-0.38c-0.02-0.04-0.04-0.09-0.06-0.13c0.15,0.02,0.31,0.04,0.51,0.06   c-0.01,0.24-0.01,0.47-0.03,0.7c-0.05,0.45,0.2,0.72,0.58,0.76c0.35,0.04,0.33,0.21,0.36,0.46c0.03,0.21,0.09,0.49,0.24,0.58   c0.4,0.26,0.86,0.43,1.42,0.7c-0.03-0.28,0.01-0.47-0.07-0.59c-0.38-0.61-0.79-1.2-1.17-1.81c-0.18-0.29-0.37-0.58-0.47-0.9   c-0.22-0.71,0.23-1.1,0.96-1c0.92,0.13,1.47,0.81,2.09,1.34c0.6,0.53,1.11,1.18,1.57,1.85c0.22,0.32,0.28,0.78,0.3,1.18   c0.03,0.9,0.22,1.73,0.61,2.55c0.21,0.44,0.3,0.94,0.47,1.4c0.06,0.16,0.19,0.3,0.28,0.45c0.44,0.73,0.9,1.46,1.32,2.21   c0.07,0.13-0.02,0.34-0.04,0.52c-0.21-0.05-0.54-0.02-0.62-0.15c-0.38-0.6-0.85-0.99-1.58-1.11c-0.23-0.04-0.42-0.31-0.62-0.49   c-0.33-0.31-0.63-0.64-0.97-0.93c-0.24-0.2-0.47-0.23-0.76,0.01c-0.3,0.25-0.68,0.38-1.03,0.57c-1.26,0.7-2.52,1.4-3.79,2.09   c0.05,0.28,0.15,0.6,0.16,0.91c0,0.19-0.1,0.47-0.24,0.54c-0.17,0.08-0.46,0.03-0.63-0.08c-0.3-0.18-0.55-0.44-0.92-0.76   c0.04,0.25,0.04,0.38,0.07,0.49c0.28,0.83,0.42,1.73,1.26,2.25c0.13,0.08,0.15,0.33,0.22,0.51c0.06,0.16,0.11,0.33,0.19,0.54   c-0.43,0.6-0.93,1.28-1.41,1.96c-0.06,0.09-0.14,0.18-0.15,0.28c-0.12,0.99-0.81,1.71-1.2,2.57c-0.04,0.1-0.17,0.2-0.15,0.28   c0.21,0.88-0.72,1.14-0.97,1.78c-0.04,0.09-0.3,0.1-0.46,0.15c-0.05-0.24-0.17-0.49-0.12-0.71c0.14-0.6,0.36-1.18,0.55-1.76   c-0.7-0.58-0.72-0.75-0.11-1.39c0.22-0.23,0.47-0.44,0.73-0.63c0.44-0.33,0.48-0.99,0.11-1.38c-0.11-0.12-0.16-0.31-0.22-0.47   c-0.2-0.49-0.4-0.98-0.6-1.47c-0.04-0.1-0.02-0.21-0.03-0.32c-0.1-1.12-0.23-2.24-0.29-3.37c-0.02-0.36,0.17-0.72,0.23-1.09   C459.62,42.12,459.59,41.86,459.59,41.58"
   clip-path="url(#SVGID_2_)"
   id="path32" />
	<path
   class="st0"
   d="M468.41,43.25c0.14,0.66,0.26,1.2,0.4,1.82c0.63-0.46,0.27-1.04,0.41-1.52   C468.97,43.46,468.77,43.39,468.41,43.25 M467.93,44.59c0.05-0.5-0.15-0.96-0.4-1.41c-0.03-0.05-0.12-0.08-0.18-0.08   c-0.4-0.01-1.13,0.61-1.26,1.07C466.66,44.3,467.25,44.43,467.93,44.59 M465.46,46.03c-0.04-0.14-0.11-0.34-0.19-0.6   c-0.11,0.15-0.17,0.26-0.26,0.33c-0.16,0.13-0.34,0.23-0.51,0.34c-0.12-0.22-0.39-0.49-0.35-0.66c0.13-0.47,0.36-0.93,0.63-1.34   c0.25-0.37,0.61-0.66,0.92-0.99c1.25-1.28,3.15-1.35,4.44,0.17c0.12,0.14,0.33,0.19,0.51,0.26c0.37,0.14,0.52,0.34,0.49,0.79   c-0.13,1.87-1.3,2.86-2.88,3.52c-0.2,0.08-0.46,0.1-0.68,0.06c-0.79-0.15-1.59-0.33-2.24-0.85c-0.18-0.14-0.36-0.36-0.39-0.57   C464.96,46.39,465.25,46.23,465.46,46.03"
   clip-path="url(#SVGID_2_)"
   id="path34" />
	<path
   class="st0"
   d="M458.02,47.94c0.46-2.33-0.44-5.33,0.35-6.19c0.09,0.01,0.18,0.02,0.27,0.03c0.05,1.56,0.13,3.12,0.13,4.68   c0,0.73-0.19,1.46-0.24,2.19c-0.04,0.64,0.03,1.29,0.01,1.93c-0.02,0.59-0.04,1.19-0.16,1.77c-0.19,0.92-0.52,1.81-0.7,2.74   c-0.11,0.57-0.05,1.18-0.06,1.77c-0.02,0.7-0.01,1.41-0.06,2.11c-0.01,0.17-0.25,0.33-0.39,0.49c-0.09-0.18-0.26-0.35-0.27-0.53   c-0.04-0.9-0.08-1.8-0.05-2.69c0.02-0.77,0.14-1.54,0.21-2.32c0.03-0.38,0.07-0.75,0.08-1.13c0.04-1.46,0.13-2.92,0.09-4.38   c-0.03-1.11-0.17-2.23-0.34-3.34c-0.06-0.41-0.34-0.78-0.53-1.17c-0.17-0.37-0.38-0.72-0.51-1.1c-0.04-0.13,0.12-0.32,0.19-0.49   c0.16,0.09,0.37,0.13,0.47,0.26C457.04,43.25,457.72,45.91,458.02,47.94"
   clip-path="url(#SVGID_2_)"
   id="path36" />
	<path
   class="st0"
   d="M460.22,57.35c0.39,1.69,0.43,4.01-1.13,5.15c-0.17,0.13-0.25,0.38-0.38,0.58c-0.18,0.27-0.45,0.44-0.71,0.19   c-0.16-0.15-0.34-0.52-0.26-0.65c0.83-1.41,1.12-3.01,1.74-4.49C459.59,57.85,459.92,57.66,460.22,57.35"
   clip-path="url(#SVGID_2_)"
   id="path38" />
	<path
   class="st0"
   d="M461.54,56.97c-0.02,0.08-0.03,0.1-0.02,0.11c0.04,0.29,0.24,0.62-0.15,0.81c-0.13,0.06-0.47,0.03-0.47,0   c-0.04-0.27-0.05-0.54-0.03-0.81c0.01-0.22,0.08-0.44,0.12-0.65c-0.09-0.04-0.12-0.07-0.15-0.07c-0.28-0.01-0.55-0.03-0.83-0.04   c0.07-0.26,0.12-0.52,0.21-0.78c0.29-0.88,0.85-1.56,1.58-2.12c0.22-0.17,0.42-0.37,0.69-0.5c-0.1,0.45-0.58,0.76-0.34,1.33   c0.33-0.28,0.61-0.52,0.9-0.77c0.05,0.03,0.1,0.07,0.14,0.1c-0.1,0.19-0.15,0.46-0.31,0.57c-0.84,0.62-0.83,1.53-0.83,2.42   C462.02,57,461.94,57.12,461.54,56.97"
   clip-path="url(#SVGID_2_)"
   id="path40" />
	<path
   class="st0"
   d="M475.41,43.14c-0.62-0.43-1.31-0.79-1.83-1.31c-0.5-0.5-0.9-1.13-1.21-1.77c-0.26-0.53-0.32-1.16-0.46-1.75   c-0.04-0.14-0.09-0.28-0.1-0.42c-0.01-0.13,0.02-0.28,0.07-0.4c0.01-0.03,0.21-0.04,0.24-0.01c0.09,0.12,0.16,0.27,0.19,0.42   c0.04,0.14-0.04,0.32,0.04,0.42c0.44,0.58,0.94,1.11,1.36,1.71c0.61,0.88,1.17,1.8,1.75,2.71c0.05,0.07,0.06,0.16,0.09,0.24   C475.51,43.03,475.46,43.09,475.41,43.14"
   clip-path="url(#SVGID_2_)"
   id="path42" />
	<path
   class="st0"
   d="M476.04,22.42c-0.48,0.68-0.96,1.35-1.44,2.03c0.04,0.02,0.07,0.05,0.11,0.07c0.27-0.08,0.54-0.17,0.81-0.26   c0.02,0.03,0.05,0.07,0.07,0.1c-0.49,0.54-0.97,1.08-1.54,1.72h0.68c-0.49,0.54-0.93,1.05-1.41,1.52   c-0.13,0.12-0.46,0.21-0.59,0.13c-0.24-0.15-0.06-0.35,0.05-0.57c0.17-0.33,0.18-0.73,0.31-1.09c0.13-0.34,0.31-0.66,0.48-0.99   c0.36-0.69,0.93-1.24,1.27-1.96c0.18-0.37,0.67-0.59,1.02-0.87C475.92,22.3,475.98,22.36,476.04,22.42"
   clip-path="url(#SVGID_2_)"
   id="path44" />
	<path
   class="st0"
   d="M466.25,56.72c0.92,0.05,1.14,0.45,1.29,0.81c0.29,0.69,0.48,1.4,0.68,2.11c0.05,0.17,0.05,0.4-0.08,0.52   c-0.89,0.83-0.68,1.82-1.03,2.73c-0.04,0.1-0.07,0.22-0.15,0.31c-0.06,0.07-0.21,0.16-0.28,0.15c-0.13-0.03-0.32-0.11-0.34-0.18   c-0.05-0.15-0.01-0.32,0.02-0.47c0.17-0.85,0.48-1.7,0.49-2.55c0.01-0.69-0.35-1.37-0.49-2.06   C466.27,57.66,466.28,57.22,466.25,56.72"
   clip-path="url(#SVGID_2_)"
   id="path46" />
	<path
   class="st0"
   d="M473.75,22.69c0.11-0.02,0.28-0.05,0.44-0.07c-0.04-0.04-0.08-0.08-0.13-0.12c0.26-0.31,0.53-0.62,0.79-0.94   c0.05,0.04,0.11,0.08,0.16,0.12c-0.09,0.19-0.18,0.37-0.27,0.56c-0.26,0.57-0.53,1.12-0.76,1.7c-0.15,0.38-0.44,0.52-0.73,0.28   c-0.48-0.4-0.59-1-0.28-1.58c0.08-0.14,0.21-0.25,0.31-0.38C473.43,22.38,473.56,22.5,473.75,22.69"
   clip-path="url(#SVGID_2_)"
   id="path48" />
	<path
   class="st0"
   d="M455.35,47.96c-0.66-0.29-1.13-0.58-1.09-1.08c0.04-0.44-0.26-0.88-0.31-1.33c-0.03-0.26,0.14-0.52,0.22-0.78   c0.47,0.15,1.03,0.25,1.39,0.45C456.2,45.57,456.01,47.55,455.35,47.96"
   clip-path="url(#SVGID_2_)"
   id="path50" />
	<path
   class="st0"
   d="M447.53,67.11c-0.52-0.61-1.06-1.21-1.55-1.83c-0.18-0.23-0.23-0.5,0.2-0.67c0.36-0.14,0.74-0.35,1.03,0.03   c0.56,0.74,0.42,1.59,0.64,2.39C447.75,67.05,447.64,67.08,447.53,67.11"
   clip-path="url(#SVGID_2_)"
   id="path52" />
	<path
   class="st0"
   d="M475.64,26.12c-0.19,0.41-0.38,0.82-0.56,1.23c0.61,0.63,0.53,0.95-0.43,1.36c0.1-0.25,0.18-0.43,0.28-0.69   c-0.33,0.21-0.58,0.37-0.83,0.53c-0.51-0.15-0.58-0.42-0.29-0.75c0.53-0.6,1.08-1.19,1.62-1.78   C475.5,26.05,475.57,26.08,475.64,26.12"
   clip-path="url(#SVGID_2_)"
   id="path54" />
	<path
   class="st0"
   d="M473.99,18.15c-0.34,0.96-0.65,1.87-0.99,2.79c-0.03,0.09-0.18,0.24-0.26,0.24c-0.19,0-0.51-0.06-0.55-0.13   c-0.12-0.24-0.27-0.51-0.16-0.73c0.34-0.65,0.78-1.28,1.25-1.9C473.38,18.28,473.79,18.22,473.99,18.15"
   clip-path="url(#SVGID_2_)"
   id="path56" />
	<path
   class="st0"
   d="M448.28,69.01c0.33,0.15,0.82,0.26,0.97,0.46c0.31,0.42,0.7,0.92,0.56,1.32c-0.14,0.39-0.94,0.19-1.15-0.09   c-0.37-0.49-0.55-1.02-0.82-1.54C447.99,69.11,448.14,69.06,448.28,69.01"
   clip-path="url(#SVGID_2_)"
   id="path58" />
	<path
   class="st0"
   d="M473.45,63.77c-0.03-0.16-0.08-0.28-0.08-0.39c-0.01-0.4,0.02-0.75-0.82-1.09c-0.51-0.21-0.31-0.75-0.44-1.16   C473.98,61.39,474.78,62.96,473.45,63.77"
   clip-path="url(#SVGID_2_)"
   id="path60" />
	<path
   class="st0"
   d="M475.6,29.53c0,0.55,0.06,1.05-0.03,1.55c-0.03,0.17-0.43,0.45-0.66,0.45c-0.35,0-0.86-0.15-1.05-0.32   C473.22,30.65,473.86,30.01,475.6,29.53"
   clip-path="url(#SVGID_2_)"
   id="path62" />
	<path
   class="st0"
   d="M456.17,46.78c0.14-0.01,0.39-0.04,0.81-0.08c0.04,0.27,0.16,0.53,0.06,0.77c-0.06,0.13-0.46,0.26-0.76,0.31   c-0.18,0.03-0.63-0.08-0.66-0.16c-0.22-0.59-0.37-1.18-0.54-1.77c0.15-0.02,0.3-0.05,0.44-0.07   C455.72,46.08,455.92,46.39,456.17,46.78"
   clip-path="url(#SVGID_2_)"
   id="path64" />
	<path
   class="st0"
   d="M440.4,33.86c-0.41-0.34-0.87-0.64-1.2-1.04c-0.57-0.67-1.06-1.41-1.57-2.13c-0.06-0.09-0.06-0.23-0.08-0.35   c0.12,0.04,0.29,0.06,0.36,0.14c0.86,1.1,1.7,2.22,2.54,3.33C440.43,33.83,440.42,33.84,440.4,33.86"
   clip-path="url(#SVGID_2_)"
   id="path66" />
	<path
   class="st0"
   d="M440.99,28.99c0.52,0.78,1.03,1.56,1.61,2.44c-1.37-0.67-2.12-1.61-1.98-2.37   C440.74,29.04,440.87,29.02,440.99,28.99"
   clip-path="url(#SVGID_2_)"
   id="path68" />
	<path
   class="st0"
   d="M437.43,31.91c0.55,0.72,1.46,1.14,1.79,2.03c-0.04,0.03-0.08,0.06-0.11,0.1c-0.63-0.66-1.26-1.32-1.89-1.98   C437.29,32.01,437.36,31.96,437.43,31.91"
   clip-path="url(#SVGID_2_)"
   id="path70" />
	<path
   class="st0"
   d="M454.38,55.57c-0.48,0.68-0.96,1.35-1.44,2.03c0.04,0.02,0.07,0.05,0.11,0.07c0.27-0.08,0.54-0.17,0.81-0.26   c0.02,0.03,0.05,0.07,0.07,0.1c-0.49,0.54-0.97,1.08-1.54,1.72h0.68c-0.49,0.54-0.93,1.05-1.41,1.52   c-0.13,0.12-0.46,0.21-0.59,0.13c-0.24-0.15-0.06-0.35,0.05-0.57c0.17-0.33,0.18-0.73,0.31-1.09c0.13-0.34,0.31-0.66,0.48-0.99   c0.36-0.69,0.93-1.24,1.27-1.96c0.18-0.37,0.67-0.59,1.02-0.87C454.27,55.45,454.33,55.51,454.38,55.57"
   clip-path="url(#SVGID_2_)"
   id="path72" />
	<path
   class="st0"
   d="M452.09,55.84c0.11-0.02,0.28-0.05,0.44-0.07c-0.04-0.04-0.08-0.08-0.13-0.12l0.79-0.94   c0.05,0.04,0.11,0.08,0.16,0.12c-0.09,0.19-0.18,0.37-0.27,0.56c-0.26,0.57-0.53,1.12-0.76,1.7c-0.15,0.38-0.44,0.52-0.73,0.28   c-0.48-0.4-0.59-1-0.28-1.58c0.08-0.14,0.21-0.25,0.31-0.38C451.78,55.53,451.9,55.65,452.09,55.84"
   clip-path="url(#SVGID_2_)"
   id="path74" />
	<path
   class="st0"
   d="M453.98,59.27c-0.19,0.41-0.38,0.82-0.56,1.23c0.61,0.63,0.53,0.95-0.43,1.36c0.1-0.24,0.18-0.43,0.28-0.69   c-0.33,0.21-0.58,0.37-0.83,0.52c-0.51-0.15-0.58-0.42-0.29-0.75c0.53-0.6,1.08-1.19,1.62-1.78   C453.85,59.2,453.91,59.23,453.98,59.27"
   clip-path="url(#SVGID_2_)"
   id="path76" />
	<path
   class="st0"
   d="M453.94,62.68c0,0.55,0.06,1.05-0.03,1.55c-0.03,0.17-0.43,0.45-0.66,0.45c-0.35,0-0.86-0.15-1.05-0.32   C451.56,63.8,452.21,63.16,453.94,62.68"
   clip-path="url(#SVGID_2_)"
   id="path78" />
</g>
</svg>
